<svg id="Layer_1" data-name="Layer 1" xmlns="http://www.w3.org/2000/svg" viewBox="0 0 238.58 317.98"><defs><style>.cls-1{fill:#f7941e;}</style></defs><title>FLASK_ICON_LOCK</title><path class="cls-1" d="M278.51,166.43V114.24a86.65,86.65,0,0,0-86.64-86.62c-0.59,0-1,0-1.6,0l-1.61,0a86.62,86.62,0,0,0-86.6,86.64v52.17H71.4V345.58H310V166.43H278.51ZM145.38,114.26A43.33,43.33,0,0,1,188.66,71c0.7,0,2.13,0,2.13,0l1.08,0a43.32,43.32,0,0,1,43.28,43.28v52.19H145.38V114.26Z" transform="translate(-71.4 -27.6)"/></svg>