<svg id="Layer_1" data-name="Layer 1" xmlns="http://www.w3.org/2000/svg" viewBox="0 0 318.03 317.99"><defs><style>.cls-1{fill:#f7941e;}</style></defs><title>FLASK_ICON_GEAR</title><path class="cls-1" d="M349,154.22H312.6c-19.41,0-24-11.23-10.33-24.91S327.52,104,328,103.63a1.15,1.15,0,0,0,0-1.55c-0.44-.43-11.45-11.46-24.53-24.51S279.38,53.46,278.92,53a1.09,1.09,0,0,0-1.52,0c-0.45.45-12,12-25.72,25.73s-24.89,9.07-24.89-10.35V32.08A1.09,1.09,0,0,0,225.66,31H156.34a1.07,1.07,0,0,0-1.1,1.08V68.39c0,19.42-11.23,24-24.92,10.35S105.06,53.46,104.65,53a1.14,1.14,0,0,0-1.56,0c-0.4.45-11.47,11.5-24.55,24.55L54,102.08a1.12,1.12,0,0,0,0,1.55c0.44,0.39,12,12,25.69,25.69s9.07,24.91-10.3,24.91H33.06A1.11,1.11,0,0,0,32,155.34v69.33a1.06,1.06,0,0,0,1.07,1.08H69.41c19.38,0,24,11.23,10.33,24.95S54.48,276,54,276.38a1.1,1.1,0,0,0,0,1.53l24.5,24.49c13.07,13.11,24.12,24.12,24.55,24.55a1.05,1.05,0,0,0,1.52,0c0.45-.43,12-12,25.71-25.67s24.92-9.07,24.92,10.29V347.9a1.09,1.09,0,0,0,1.1,1.1h69.32a1.11,1.11,0,0,0,1.13-1.1V311.57c0-19.36,11.22-24,24.89-10.35S277,326.53,277.4,327a1.06,1.06,0,0,0,1.52,0c0.46-.43,11.44-11.44,24.53-24.55s24.07-24.06,24.51-24.49a1.13,1.13,0,0,0,0-1.53c-0.44-.41-12-12-25.7-25.69s-9.06-24.95,10.34-24.95H349a1,1,0,0,0,1.06-1.08V155.34A1.1,1.1,0,0,0,349,154.22ZM193.39,242.28a53.4,53.4,0,1,1,53.39-53.38A53.41,53.41,0,0,1,193.39,242.28Z" transform="translate(-31.98 -31.01)"/></svg>