<svg id="Layer_1" data-name="Layer 1" xmlns="http://www.w3.org/2000/svg" viewBox="0 0 363.01 364.71"><defs><style>.cls-1{fill:#231f20;}.cls-2{fill:#f89735;fill-rule:evenodd;}</style></defs><title>FLASK_ICON_WEBSITE</title><polygon class="cls-1" points="182.65 0 0 183.76 182.65 364.71 363.01 182.36 182.65 0"/><path class="cls-2" d="M193.06,109.44c46.69,0,83.58,34.24,83.58,77.61s-36.9,77.61-83.58,77.61-83.59-34.24-83.59-77.61S146.35,109.44,193.06,109.44Zm-46,74.19c0.51-9.82,3.45-22.15,8.39-34.47a107.34,107.34,0,0,1-19.18-9.58,66.67,66.67,0,0,0-18.93,44h29.72Zm-29.72,6.85a66.7,66.7,0,0,0,18.93,44,108.46,108.46,0,0,1,19.18-9.57c-5.18-12.34-8.12-24.88-8.39-34.47H117.35Zm54.56-71.22a73.1,73.1,0,0,0-30.48,15.52,87.51,87.51,0,0,0,16.48,8.44A107,107,0,0,1,171.92,119.26ZM141.44,239.31a69.89,69.89,0,0,0,30.48,15.31,92.85,92.85,0,0,1-13.73-24A83.83,83.83,0,0,0,141.44,239.31Zm48-81.48a91.06,91.06,0,0,1-27.32-6.38,96.36,96.36,0,0,0-7.61,32.18H189.4v-25.8Zm-34.93,32.65a100.45,100.45,0,0,0,7.61,32.18,91.6,91.6,0,0,1,27.32-6.39V190.48H154.47Zm34.93-74a46.29,46.29,0,0,0-7.63.69,137,137,0,0,0-17.48,28.54,97.58,97.58,0,0,0,25.11,5V116.52Zm0,106.83a99.19,99.19,0,0,0-24.82,4.78,122.83,122.83,0,0,0,17.18,28.78,46.22,46.22,0,0,0,7.63.67V223.35Zm7.34-72.61a97.2,97.2,0,0,0,25.08-5,134.68,134.68,0,0,0-17.45-28.54,46.82,46.82,0,0,0-7.63-.69v34.23Zm0,32.88h34.93a95,95,0,0,0-7.61-32.18,91.21,91.21,0,0,1-27.32,6.38v25.8Zm0,6.85v25.79a91.76,91.76,0,0,1,27.32,6.39c4.45-10.95,7.12-21.91,7.61-32.18H196.73Zm0,67.11a46.74,46.74,0,0,0,7.63-.67,122.93,122.93,0,0,0,17.21-28.78,99.62,99.62,0,0,0-24.84-4.78v34.23Zm48-122.8a73.09,73.09,0,0,0-30.48-15.52,108,108,0,0,1,14,24A87.34,87.34,0,0,0,244.69,134.78ZM214.21,254.62a69.88,69.88,0,0,0,30.48-15.31A84.18,84.18,0,0,0,228,230.64,95.3,95.3,0,0,1,214.21,254.62Zm54.56-71a66.68,66.68,0,0,0-18.94-44,108.82,108.82,0,0,1-19.15,9.58c4.88,12.33,7.85,24.65,8.36,34.47h29.72ZM239,190.48c-0.27,9.59-3.24,22.13-8.36,34.47a110,110,0,0,1,19.15,9.57,66.7,66.7,0,0,0,18.94-44H239Z" transform="translate(-9.06 -7)"/></svg>