<svg xml:space="preserve" height="45" width="60" style="enable-background:new 0 0 380 382;" viewBox="0 0 380 382" y="0px" x="0px" id="Layer_1" version="1.1" xmlns:xlink="http://www.w3.org/1999/xlink" xmlns="http://www.w3.org/2000/svg">
<style type="text/css">
	.st0{fill:#FFFFFF;stroke:#F7941E;stroke-width:3;stroke-miterlimit:10;}
	.st1{fill:none;}
	.st2{enable-background:new    ;}
</style>
<polygon points="170.9,186.7 189.6,371 205.9,186.7 "/>
<circle cx="189" cy="102.4" r="87.4"/>
<circle class="st0" cx="189" cy="102.4" r="73.5"/>
<rect x="129.3" y="69" class="st1" width="214.7" height="143"/>
<g class="st2">
	<path d="M157.7,112.6v8.9c0,7.2-3.2,11.1-9.8,11.6v6.8h-5.8v-6.8c-6.5-0.6-9.6-4.4-9.6-11.4v-13h7v13.2c0,3.2,1.5,4.8,4.8,4.8h1.4
		c3.2,0,4.8-1.5,4.8-4.8v-9.2c0-3.1-1.1-4.5-3.1-6l-8.8-6.4c-4.7-3.3-6-6.6-6-11.7v-7.3c0-7.1,3.1-11,9.6-11.6v-6.4h5.8v6.4
		c6.4,0.6,9.6,4.5,9.6,11.4v11.1h-7V80.9c0-3.2-1.5-4.8-4.8-4.8h-1.3c-3.2,0-4.8,1.5-4.8,4.8v7.6c0,3.1,1.2,4.5,3.2,6l8.7,6.3
		C156.2,104.2,157.7,107.2,157.7,112.6z"/>
</g>
<g class="st2">
	<path d="M177.9,96.3c1.9-2.3,2.5-3.8,2.5-6v-8.7c0-2.5-1.2-3.7-3.5-3.7h-1.2c-2.4,0-3.6,1.2-3.6,3.7v11.2H163V81.1
		c0-7.8,3.9-11.7,11.6-11.7h3.8c7.7,0,11.6,3.9,11.6,11.7v8.7c0,4.4-1,7.6-4.9,12.4L174.9,115c-2,2.5-2.6,4-2.6,6.9v2.2H190v8.7
		h-27.2v-11.3c0-4.6,1.2-7.7,4.9-12.5L177.9,96.3z"/>
	<path d="M211.3,133.4h-4.8c-7.8,0-11.7-3.9-11.7-11.7V81.1c0-7.8,3.9-11.7,11.7-11.7h4.8c7.8,0,11.7,3.9,11.7,11.7v40.7
		C223,129.6,219.1,133.4,211.3,133.4z M209.9,77.8h-1.8c-2.5,0-3.7,1.2-3.7,3.7v39.8c0,2.5,1.2,3.7,3.7,3.7h1.8
		c2.4,0,3.6-1.2,3.6-3.7V81.5C213.5,79,212.3,77.8,209.9,77.8z"/>
	<path d="M236.1,104.4h-9.5v-7h9.5v-9.7h7.4v9.7h9.5v7h-9.5v9.8h-7.4V104.4z"/>
</g>
</svg>
