<svg id="Layer_1" data-name="Layer 1" xmlns="http://www.w3.org/2000/svg" viewBox="0 0 587.96 398.25"><defs><style>.cls-1{fill:#231f20;}.cls-2{fill:#f7941e;}</style></defs><title>FLASK_LOGO_STANDARD</title><path class="cls-1" d="M136.45,420.86v23.72l34.1-9.08v24.09l-34.1,9.08v33.91H113.29V420.86a29.26,29.26,0,0,1,29.28-29.47h38.92v23.16H142.57a6.33,6.33,0,0,0-6.12,6.3" transform="translate(-113.29 -104.51)"/><path class="cls-1" d="M303.41,502.58H264.68a29.5,29.5,0,0,1-29.47-29.28V391.39h23.16V473.3a6.21,6.21,0,0,0,6.3,6.12h38.54Z" transform="translate(-113.29 -104.51)"/><path class="cls-1" d="M434.23,420.86v81.72H410.88V461.44l-33.17,9.08v32.06H354.36V420.86a29.42,29.42,0,0,1,29.47-29.47h20.94a29.42,29.42,0,0,1,29.47,29.47m-23.35,0a6.17,6.17,0,0,0-6.12-6.12H383.83a6.17,6.17,0,0,0-6.12,6.12v25.57l33.17-8.89V420.86Z" transform="translate(-113.29 -104.51)"/><path class="cls-1" d="M546.34,425.31v-4.45a6.3,6.3,0,0,0-6.12-6.12H517.43a6.38,6.38,0,0,0-6.49,6.12v16.49a3.55,3.55,0,0,0,.56,2.22,1.7,1.7,0,0,0,1.11.19,4.59,4.59,0,0,0,1.48-.19l20.57-4.82A36.31,36.31,0,0,1,540,434c15.75,0,29.46,13,29.46,29.28v10A29.54,29.54,0,0,1,540,502.77H517.24a29.42,29.42,0,0,1-29.47-29.46v-0.93h23.16v0.93a6.49,6.49,0,0,0,6.3,6.3H540a6.49,6.49,0,0,0,6.3-6.3v-10c0-3.33-2.41-5.56-5.37-6.3-0.93-.18-21.5,5.37-21.5,5.37a27.32,27.32,0,0,1-6.67.74,22.93,22.93,0,0,1-15.38-5.37c-6.12-4.63-9.64-12-9.64-20.38V421a29.74,29.74,0,0,1,29.65-29.65h24.46c15.57,0,27.61,13.9,27.61,29.46v4.45H546.34Z" transform="translate(-113.29 -104.51)"/><polygon class="cls-1" points="571.65 345.63 585.74 398.07 561.65 398.07 551.08 358.97 533.11 363.97 533.11 398.07 509.94 398.07 509.94 286.88 533.11 286.88 533.11 339.88 550.53 335.25 563.5 286.88 587.96 286.88 571.65 345.63"/><path class="cls-1" d="M420,177.51H394.51a2,2,0,0,0,0,4.1H420a2,2,0,0,0,0-4.1" transform="translate(-113.29 -104.51)"/><path class="cls-1" d="M417.83,165.37l-0.16,0-0.4,0-0.7.08-0.82.08-1.06.08-0.35,0-1.15.07-0.54,0-1,0-0.7,0-0.87,0h-4.69l-0.87,0-0.78,0-0.77,0-1,0-0.56,0-1.13-.07-0.37,0-1.06-.08-0.75-.07-0.72-.08-0.42-.05-0.15,0-0.47-.07-0.35-.06-0.38-.07h0l-0.4.19-0.29.16a5.82,5.82,0,0,0-.69.46h0l-0.25.2a4.9,4.9,0,0,0-.54.54l-0.2.25a4.07,4.07,0,0,0-.43.72,3.24,3.24,0,0,0-.13.33c0,0.06,0,.12-0.06.18a3.07,3.07,0,0,0-.09.56c0,0.07,0,.13,0,0.19v0a4.26,4.26,0,0,0,4.26,4.26h21.11a4.26,4.26,0,0,0,4.26-4.26v0c0-.08,0-0.17,0-0.25a3.14,3.14,0,0,0-.11-0.57l0-.07a3.5,3.5,0,0,0-.13-0.33,3.74,3.74,0,0,0-.42-0.72l-0.2-.25a5.19,5.19,0,0,0-.54-0.55L420.4,166l0,0a6.49,6.49,0,0,0-.66-0.44l-0.29-.16-0.32-.15-0.14-.06-0.32.06-0.33.06-0.48.07" transform="translate(-113.29 -104.51)"/><path class="cls-1" d="M396.18,165l0.26,0h0l0.76,0.1h0l1,0.11h0l0.48,0h0.13c1.29,0.11,2.79.2,4.42,0.25h0.14l1.54,0h0.14l2.21,0h0.87l1.53,0h0l1.54,0h0c1.63-.06,3.17-0.15,4.49-0.27h0.09l0.55-.05h0.06c0.69-.07,1.32-0.15,1.86-0.23a5.23,5.23,0,0,0-1.48-.23H397.68a5.27,5.27,0,0,0-1.49.23" transform="translate(-113.29 -104.51)"/><path class="cls-1" d="M416.1,177.19a1.8,1.8,0,1,0,0-3.61H398.43a1.8,1.8,0,1,0,0,3.61H416.1Z" transform="translate(-113.29 -104.51)"/><path class="cls-1" d="M416.6,181.92H397.94a2.3,2.3,0,0,0-2.29,2.3,2.27,2.27,0,0,0,0,.44c4.84,0.19,9.11.32,11.19,0.32s6.81-.15,12-0.36a2.41,2.41,0,0,0,0-.41,2.3,2.3,0,0,0-2.29-2.3" transform="translate(-113.29 -104.51)"/><path class="cls-1" d="M514.47,144.31c-1.71-1.62-42.67-39.79-107.21-39.79s-105.49,38.17-107.19,39.79l-4.39,4.17V239.2c0,74.57,101.79,118.27,106.13,120.09l5.46,2.3,5.48-2.3c4.32-1.82,106.12-45.52,106.12-120.09V148.48Zm-23.8,94.9c0,21.78-13.38,40.83-29.75,56,0-13.86-.19-105-0.07-107.41a2.5,2.5,0,0,0-1.38-1.93,11.83,11.83,0,0,0-5.31-1.55h0a25.54,25.54,0,0,0-5.39-.42,64.63,64.63,0,0,0-7.07.43h0l-4.12.19c-8,.37-25.35,1.15-30.29,1.15-6.46,0-34.13-1.33-34.41-1.34h0a64.63,64.63,0,0,0-7.07-.43,25.58,25.58,0,0,0-5.39.42h0a11.81,11.81,0,0,0-5.3,1.55,2.5,2.5,0,0,0-1.38,1.93c0.12,2.45,0,93.55-.07,107.41-16.38-15.15-29.75-34.2-29.75-56V161.1c10.83-8.41,41-28.4,83.4-28.4,42.05,0,72.51,20.05,83.41,28.44V239.2Z" transform="translate(-113.29 -104.51)"/><polygon class="cls-2" points="293.12 98.71 304.59 131.44 339.28 130.63 311.7 151.66 323.18 184.38 294.65 164.67 267.08 185.68 277.02 152.47 248.49 132.74 283.16 131.94 293.12 98.71"/></svg>