<?xml version="1.0" encoding="utf-8"?>
<!-- Generator: Adobe Illustrator 20.1.0, SVG Export Plug-In . SVG Version: 6.00 Build 0)  -->
<svg version="1.1" id="Layer_1" xmlns="http://www.w3.org/2000/svg" xmlns:xlink="http://www.w3.org/1999/xlink" x="0px" y="0px"
	 viewBox="0 0 380 382" style="enable-background:new 0 0 380 382;" xml:space="preserve">
<style type="text/css">
	.st0{fill:#FFFFFF;stroke:#F7941E;stroke-width:3;stroke-miterlimit:10;}
	.st1{clip-path:url(#SVGID_2_);fill:#3E82F1;}
	.st2{clip-path:url(#SVGID_4_);fill:#32A753;}
	.st3{clip-path:url(#SVGID_6_);fill:#F9BB00;}
	.st4{clip-path:url(#SVGID_8_);fill:#E74133;}
</style>
<polygon points="170.9,186.7 189.6,371 205.9,186.7 "/>
<circle cx="189" cy="102.4" r="87.4"/>
<circle class="st0" cx="189" cy="102.4" r="73.5"/>
<g>
	<g>
		<defs>
			<path id="SVGID_1_" d="M239.7,102.4c0-3.7-0.3-7.3-0.9-10.7h-49.2v20.2h28.1c-1.2,6.5-4.9,12.1-10.4,15.8v13.1h16.9
				C234,131.7,239.7,118.3,239.7,102.4L239.7,102.4L239.7,102.4z M239.7,102.4"/>
		</defs>
		<clipPath id="SVGID_2_">
			<use xlink:href="#SVGID_1_"  style="overflow:visible;"/>
		</clipPath>
		<rect id="XMLID_10_" x="160.5" y="62.7" class="st1" width="108.2" height="107.1"/>
	</g>
	<g>
		<defs>
			<path id="SVGID_3_" d="M189.6,153.5c14.1,0,25.9-4.7,34.6-12.7l-16.9-13.1c-4.7,3.1-10.7,5-17.7,5c-13.6,0-25.1-9.2-29.2-21.5
				h-17.4v13.5C151.5,141.8,169.1,153.5,189.6,153.5L189.6,153.5L189.6,153.5z M189.6,153.5"/>
		</defs>
		<clipPath id="SVGID_4_">
			<use xlink:href="#SVGID_3_"  style="overflow:visible;"/>
		</clipPath>
		<rect id="XMLID_7_" x="113.9" y="82.1" class="st2" width="139.3" height="100.3"/>
	</g>
	<g>
		<defs>
			<path id="SVGID_5_" d="M160.3,111.2c-1-3.1-1.6-6.5-1.6-9.9c0-3.4,0.6-6.8,1.6-9.9V77.8h-17.4c-3.5,7.1-5.6,15-5.6,23.5
				s2,16.4,5.6,23.5L160.3,111.2L160.3,111.2L160.3,111.2z M160.3,111.2"/>
		</defs>
		<clipPath id="SVGID_6_">
			<use xlink:href="#SVGID_5_"  style="overflow:visible;"/>
		</clipPath>
		<rect id="XMLID_4_" x="108.3" y="48.8" class="st3" width="81" height="104.9"/>
	</g>
	<g>
		<defs>
			<path id="SVGID_7_" d="M189.6,69.8c7.7,0,14.6,2.6,20,7.8l15-15c-9-8.4-20.9-13.6-34.9-13.6c-20.4,0-38.1,11.7-46.7,28.8
				l17.4,13.5C164.4,79,176,69.8,189.6,69.8L189.6,69.8L189.6,69.8z M189.6,69.8"/>
		</defs>
		<clipPath id="SVGID_8_">
			<use xlink:href="#SVGID_7_"  style="overflow:visible;"/>
		</clipPath>
		<rect id="XMLID_1_" x="113.9" y="20" class="st4" width="139.6" height="100.3"/>
	</g>
</g>
</svg>
