<?xml version="1.0" encoding="utf-8"?>
<!-- Generator: Adobe Illustrator 20.1.0, SVG Export Plug-In . SVG Version: 6.00 Build 0)  -->
<svg version="1.1" id="Layer_1" xmlns="http://www.w3.org/2000/svg" xmlns:xlink="http://www.w3.org/1999/xlink" x="0px" y="0px"
	 viewBox="0 0 380 382" style="enable-background:new 0 0 380 382;" xml:space="preserve">
<style type="text/css">
	.st0{fill:#FFFFFF;stroke:#F7941E;stroke-width:3;stroke-miterlimit:10;}
	.st1{fill:none;}
	.st2{enable-background:new    ;}
</style>
<polygon points="170.9,186.7 189.6,371 205.9,186.7 "/>
<circle cx="189" cy="102.4" r="87.4"/>
<circle class="st0" cx="189" cy="102.4" r="73.5"/>
<rect x="129.3" y="69" class="st1" width="214.7" height="143"/>
<g class="st2">
	<path d="M169.5,131.3v8c0,6.5-2.9,10-8.8,10.4v6.1h-5.2v-6.1c-5.8-0.5-8.6-4-8.6-10.2v-11.7h6.3v11.9c0,2.9,1.3,4.3,4.3,4.3h1.3
		c2.9,0,4.3-1.3,4.3-4.3v-8.3c0-2.8-1-4-2.8-5.4l-7.9-5.8c-4.2-3-5.4-5.9-5.4-10.5v-6.6c0-6.4,2.8-9.9,8.6-10.4V87h5.2v5.8
		c5.8,0.5,8.6,4,8.6,10.2v10h-6.3v-10.2c0-2.9-1.3-4.3-4.3-4.3h-1.2c-2.9,0-4.3,1.3-4.3,4.3v6.8c0,2.8,1.1,4,2.9,5.4l7.8,5.7
		C168.1,123.8,169.5,126.5,169.5,131.3z"/>
</g>
<path d="M190.9,155.9h-10.1v-54.6h-6.4v-7.6l0.8-0.1c3.8-0.4,5.6-1.7,7.9-4.8l1.2-1.5h6.6L190.9,155.9L190.9,155.9z"/>
<path d="M215.6,156.4h-5.2c-8.5,0-12.7-4.2-12.7-12.7v-44c0-8.5,4.2-12.7,12.7-12.7h5.2c8.5,0,12.7,4.2,12.7,12.7v44.1
	C228.3,152.3,224,156.4,215.6,156.4z M213.9,96.1h-2c-2.7,0-4,1.3-4,4v43.2c0,2.7,1.3,4,4,4h2c2.6,0,3.9-1.3,3.9-4v-43.2
	C217.8,97.4,216.5,96.1,213.9,96.1z"/>
<g>
	<path d="M163.5,76.5c0,4.1-2,6.1-6.1,6.1h-2.4c-4.1,0-6.1-2-6.1-6.1V49.7h5v26.6c0,1.3,0.6,1.9,1.9,1.9h0.8c1.3,0,1.9-0.6,1.9-1.9
		V49.7h5V76.5z"/>
	<path d="M176,82.3l-5.1-21.9l0,5.7v16.2h-4.5V49.7h5.8l4.7,20.1l0-5.4V49.7h4.5v32.6H176z"/>
	<path d="M184.4,49.7h7.5c4.8,0,7.1,2.3,7.1,7.1v18.3c0,4.8-2.3,7.1-7.1,7.1h-7.5V49.7z M189.3,77.9h1.8c2,0,2.8-0.9,2.8-2.9V56.9
		c0-2-0.9-2.9-2.8-2.9h-1.8V77.9z"/>
	<path d="M213,49.7v4.5h-6.1v9.2h5.9v4.5h-5.9v9.8h6.2v4.5h-11.2V49.7H213z"/>
	<path d="M230,71.2v11.1h-5v-11c0-1.4-0.7-2.1-2.1-2.1h-2.2v13.1h-5V49.7h8.2c4.1,0,6.1,2,6.1,6.1v6.1c0,2.9-1,4.3-2.8,5
		C229.2,67.4,230,68.7,230,71.2z M223.1,54.1h-2.4v10.8h2.2c1.4,0,2-0.7,2-2v-6.9C225,54.7,224.4,54.1,223.1,54.1z"/>
</g>
</svg>
