<svg id="Layer_1" data-name="Layer 1" xmlns="http://www.w3.org/2000/svg" xmlns:xlink="http://www.w3.org/1999/xlink" viewBox="0 0 344.87 346.48"><defs><style>.cls-1{mask:url(#mask);}.cls-2,.cls-4{mix-blend-mode:multiply;}.cls-2{fill:url(#linear-gradient);}.cls-3{mask:url(#mask-2);}.cls-4{fill:url(#radial-gradient);}.cls-5{fill:#231f20;}.cls-6{fill:#f89735;}.cls-7{mask:url(#mask-3);}.cls-8{mask:url(#mask-4);}.cls-9{filter:url(#luminosity-noclip-4);}.cls-10{filter:url(#luminosity-noclip-3);}.cls-11{filter:url(#luminosity-noclip-2);}.cls-12{filter:url(#luminosity-noclip);}</style><filter id="luminosity-noclip" x="126.02" y="-8401" width="98.31" height="32766" filterUnits="userSpaceOnUse" color-interpolation-filters="sRGB"><feFlood flood-color="#fff" result="bg"/><feBlend in="SourceGraphic" in2="bg"/></filter><mask id="mask" x="126.02" y="-8401" width="98.31" height="32766" maskUnits="userSpaceOnUse"><g class="cls-12"/></mask><linearGradient id="linear-gradient" x1="425.56" y1="28.38" x2="425.56" y2="51.16" gradientTransform="translate(-105.16 -122.56) rotate(45)" gradientUnits="userSpaceOnUse"><stop offset="0"/><stop offset="1" stop-color="#fff"/></linearGradient><filter id="luminosity-noclip-2" x="137.29" y="-8401" width="82.48" height="32766" filterUnits="userSpaceOnUse" color-interpolation-filters="sRGB"><feFlood flood-color="#fff" result="bg"/><feBlend in="SourceGraphic" in2="bg"/></filter><mask id="mask-2" x="137.29" y="-8401" width="82.48" height="32766" maskUnits="userSpaceOnUse"><g class="cls-11"/></mask><radialGradient id="radial-gradient" cx="425.56" cy="28.8" r="41.84" gradientTransform="translate(-105.16 -122.56) rotate(45)" gradientUnits="userSpaceOnUse"><stop offset="0" stop-color="#fff"/><stop offset="1"/></radialGradient><filter id="luminosity-noclip-3" x="126.02" y="149.77" width="98.31" height="98.33" filterUnits="userSpaceOnUse" color-interpolation-filters="sRGB"><feFlood flood-color="#fff" result="bg"/><feBlend in="SourceGraphic" in2="bg"/></filter><mask id="mask-3" x="107.42" y="132.67" width="98.31" height="98.33" maskUnits="userSpaceOnUse"><g class="cls-10"><g transform="translate(-18.6 -17.1)"><g class="cls-1"><path class="cls-2" d="M224.33,248V224.64c-1.56.46-5.92,0.8-14-2.5C199.55,217.81,187.1,209,176.08,198s-19.81-23.46-24.16-34.21c-3.25-8.12-2.95-12.48-2.48-14H126.09c-1.23,19.17,13.66,44.61,33.67,64.6S205.14,249.24,224.33,248Z"/></g></g></g></mask><filter id="luminosity-noclip-4" x="137.29" y="154.35" width="82.48" height="82.46" filterUnits="userSpaceOnUse" color-interpolation-filters="sRGB"><feFlood flood-color="#fff" result="bg"/><feBlend in="SourceGraphic" in2="bg"/></filter><mask id="mask-4" x="118.69" y="137.25" width="82.48" height="82.46" maskUnits="userSpaceOnUse"><g class="cls-9"><g transform="translate(-18.6 -17.1)"><g class="cls-3"><path class="cls-4" d="M168.32,205.78c-17.17-17.17-28.65-36.48-31-51.43h7.81a53.82,53.82,0,0,0,2.84,9.19c4.72,11.67,14.12,25.09,25.8,36.8s25.14,21.1,36.8,25.81a48.62,48.62,0,0,0,9.22,2.82v7.84C204.81,234.44,185.49,222.94,168.32,205.78Z"/></g></g></g></mask></defs><title>FLASK_ICON_CALLNOW</title><polygon class="cls-5" points="173.53 0 0 174.57 173.53 346.48 344.87 173.24 173.53 0"/><path class="cls-6" d="M224.33,248V224.64c-1.56.46-5.92,0.8-14-2.5C199.55,217.81,187.1,209,176.08,198s-19.81-23.46-24.16-34.21c-3.25-8.12-2.95-12.48-2.48-14H126.09c-1.23,19.17,13.66,44.61,33.67,64.6S205.14,249.24,224.33,248Z" transform="translate(-18.6 -17.1)"/><g class="cls-7"><path class="cls-6" d="M224.33,248V224.64c-1.56.46-5.92,0.8-14-2.5C199.55,217.81,187.1,209,176.08,198s-19.81-23.46-24.16-34.21c-3.25-8.12-2.95-12.48-2.48-14H126.09c-1.23,19.17,13.66,44.61,33.67,64.6S205.14,249.24,224.33,248Z" transform="translate(-18.6 -17.1)"/></g><g class="cls-8"><path class="cls-6" d="M168.32,205.78c-17.17-17.17-28.65-36.48-31-51.43h7.81a53.82,53.82,0,0,0,2.84,9.19c4.72,11.67,14.12,25.09,25.8,36.8s25.14,21.1,36.8,25.81a48.62,48.62,0,0,0,9.22,2.82v7.84C204.81,234.44,185.49,222.94,168.32,205.78Z" transform="translate(-18.6 -17.1)"/></g><path class="cls-6" d="M247.14,241.37a26.72,26.72,0,0,1-37.79-37.77c10.45-10.43,16.45.47,26.88,10.9S257.54,230.94,247.14,241.37Z" transform="translate(-18.6 -17.1)"/><rect class="cls-6" x="226.36" y="191.23" width="12.84" height="53.43" transform="translate(-104.53 211.44) rotate(-45.02)"/><path class="cls-6" d="M256.13,227.58l-33-33a3.31,3.31,0,0,0-4.74,0l37.79,37.76A3.33,3.33,0,0,0,256.13,227.58Z" transform="translate(-18.6 -17.1)"/><path class="cls-6" d="M170.5,164.73A26.71,26.71,0,0,1,132.73,127c10.4-10.42,16.43.49,26.86,10.92S180.93,154.3,170.5,164.73Z" transform="translate(-18.6 -17.1)"/><rect class="cls-6" x="149.73" y="114.6" width="12.83" height="53.41" transform="translate(-72.79 134.71) rotate(-45)"/><path class="cls-6" d="M179.54,151l-33-33a3.36,3.36,0,0,0-4.76,0l37.77,37.76A3.4,3.4,0,0,0,179.54,151Z" transform="translate(-18.6 -17.1)"/></svg>